<?xml version="1.0" encoding="UTF-8" standalone="no"?>
<!-- Created with Inkscape (http://www.inkscape.org/) -->

<svg
   width="107.95631mm"
   height="28.505157mm"
   viewBox="0 0 107.95631 28.505157"
   version="1.1"
   id="svg1"
   xml:space="preserve"
   xmlns="http://www.w3.org/2000/svg"
   xmlns:svg="http://www.w3.org/2000/svg"><defs
     id="defs1" /><g
     id="layer1"
     transform="translate(-51.061429,-134.17867)"><g
       id="g1"
       transform="matrix(0.26458333,0,0,0.26458333,47.117814,133.12479)"><path
         d="m 21.71,103.2 h 34 l 15.92,-86.4 47.75,86.4 15.92,-86.4 h 26"
         fill="none"
         stroke="#ea580c"
         stroke-width="13.61"
         stroke-linecap="round"
         stroke-linejoin="round"
         id="path1" /><g
         transform="matrix(0.143266,0,0,-0.143266,147.01,110)"
         fill="#1f2933"
         id="g2"><path
           d="M 285.34515,-12 Q 208.29498,-12 153.12241,21.5 97.949829,55 68.597321,116.55753 39.244812,178.11505 39.244812,261.52509 q 0,82.70501 28.647491,143.91003 28.647492,61.20502 82.762547,95.05753 54.11505,33.8525 130.4602,33.8525 81.69031,0 134.15787,-36.02508 52.46756,-36.02509 78.05752,-95.84516 25.58997,-59.82006 25.58997,-131.41003 v -42.2301 H 171.89099 v -12.71973 q 0,-56.42474 32.0398,-91.0545 32.03979,-34.629764 94.87457,-34.629764 47.58996,0 78.44983,20.179934 30.85986,20.17993 54.38495,50.48962 L 500.62543,84.14447 Q 468.57526,40.604675 413.1077,14.302338 357.64014,-12 285.34515,-12 Z m -2.11505,449.73444 q -33.83478,0 -58.87457,-15.41739 -25.0398,-15.41739 -38.75217,-42.8097 -13.71237,-27.3923 -13.71237,-63.93209 v -7.70502 h 213.79328 v 9.58997 q 0,36.12976 -11.71238,63.07958 -11.71237,26.94983 -34.60467,42.07224 -22.89231,15.12241 -56.13712,15.12241 z"
           id="path2" /></g><g
         transform="matrix(0.143266,0,0,-0.143266,226.95,110)"
         fill="#1f2933"
         id="g3"><path
           d="M 100.30969,0 V 420.61938 H 23.359863 v 101.72577 h 76.949827 v 74.38929 q 0,69.21539 36.81272,106.24047 Q 173.93512,740 244.33044,740 h 90.69031 V 638.27423 H 228.25085 V 522.34515 h 106.7699 V 420.61938 H 228.25085 V 0 Z"
           id="path3" /></g><g
         transform="matrix(0.143266,0,0,-0.143266,277.09,110)"
         fill="#1f2933"
         id="g4"><path
           d="M 285.34515,-12 Q 208.29498,-12 153.12241,21.5 97.949829,55 68.597321,116.55753 39.244812,178.11505 39.244812,261.52509 q 0,82.70501 28.647491,143.91003 28.647492,61.20502 82.762547,95.05753 54.11505,33.8525 130.4602,33.8525 81.69031,0 134.15787,-36.02508 52.46756,-36.02509 78.05752,-95.84516 25.58997,-59.82006 25.58997,-131.41003 v -42.2301 H 171.89099 v -12.71973 q 0,-56.42474 32.0398,-91.0545 32.03979,-34.629764 94.87457,-34.629764 47.58996,0 78.44983,20.179934 30.85986,20.17993 54.38495,50.48962 L 500.62543,84.14447 Q 468.57526,40.604675 413.1077,14.302338 357.64014,-12 285.34515,-12 Z m -2.11505,449.73444 q -33.83478,0 -58.87457,-15.41739 -25.0398,-15.41739 -38.75217,-42.8097 -13.71237,-27.3923 -13.71237,-63.93209 v -7.70502 h 213.79328 v 9.58997 q 0,36.12976 -11.71238,63.07958 -11.71237,26.94983 -34.60467,42.07224 -22.89231,15.12241 -56.13712,15.12241 z"
           id="path4" /></g><g
         transform="matrix(0.143266,0,0,-0.143266,357.04,110)"
         fill="#1f2933"
         id="g5"><path
           d="M 244.93512,-12 Q 170.41003,-12 119.29498,13.384949 68.179932,38.769897 28.949829,84.06488 l 78.150511,75.61072 q 28.58997,-32.7699 63.47492,-51.65485 34.88495,-18.884947 79.65484,-18.884947 46.06488,0 66.45719,16.007357 20.3923,16.00735 20.3923,44.02206 0,22.94983 -14.56488,36.48963 -14.56488,13.53979 -49.34949,18.42474 l -52.28027,6.70502 q -55.46021,7.70501 -94.51773,26.67257 -39.057528,18.96756 -59.147493,51.58261 -20.089966,32.61506 -20.089966,79.91004 0,76.29498 54.262539,120.84515 54.26255,44.55017 143.8378,44.55017 51.16522,0 87.54282,-9.64749 36.37759,-9.64749 64.14014,-28.14749 27.76254,-18.5 52.28762,-44.5 L 373.64014,376.5545 Q 351,401.25952 319.05753,417.23444 q -31.94248,15.97491 -69.95719,15.97491 -40.53979,0 -59.84213,-14.80234 -19.30234,-14.80233 -19.30234,-39.81704 0,-25.71973 15.62976,-38.98963 15.62976,-13.2699 52.34949,-19.15484 l 53.39532,-7.41004 q 86,-11.58996 127.28763,-50.20502 41.28763,-38.61505 41.28763,-103.9602 0,-50 -26.52508,-88.820069 Q 406.85553,31.230103 358.5679,9.6150513 310.28027,-12 244.93512,-12 Z"
           id="path5" /></g></g></g></svg>
