<?xml version="1.0" encoding="UTF-8"?>
<svg xmlns="http://www.w3.org/2000/svg" xmlns:xlink="http://www.w3.org/1999/xlink" style="color: rgb(108, 117, 125); --color-surface: #ffffff;" viewBox="-26.979183197021484 -23.33333319425583 496.97918701171875 125.16666412353516" width="496.97918701171875" height="125.16666412353516"><g><g class="export-edges"><g tabindex="0" role="button" data-testid="rf__edge-reactflow__edge-MassFlowInlet1-p8cMassFlowInlet1-p8c-port-0-Duct1-cv1Duct1-cv1-port-0" aria-label="Edge from MassFlowInlet1-p8c to Duct1-cv1" aria-describedby="react-flow__edge-desc-1" stroke-width="1" stroke-linecap="butt" stroke-linejoin="miter" style="fill: rgb(0, 0, 0); fill-opacity: 1; fill-rule: nonzero; stroke: none; stroke-opacity: 1; stop-color: rgb(0, 0, 0); stop-opacity: 1; opacity: 1;"><g class="custom-edge" stroke-width="1" stroke-linecap="butt" stroke-linejoin="miter" style="fill: rgb(0, 0, 0); fill-opacity: 1; fill-rule: nonzero; stroke: none; stroke-opacity: 1; stop-color: rgb(0, 0, 0); stop-opacity: 1; opacity: 1;"><path id="reactflow__edge-MassFlowInlet1-p8cMassFlowInlet1-p8c-port-0-Duct1-cv1Duct1-cv1-port-0" d="M48.563822742716525,38.170584648578846 C88.52472535153932,38.58212711883481 88.52473974049889,38.990875244140625 128.48565673828125,38.990875244140625" fill="none" class="react-flow__edge-path" stroke-width="1" stroke-linecap="butt" stroke-linejoin="miter" style="fill: none; fill-opacity: 1; fill-rule: nonzero; stroke: rgba(74, 74, 74, 0.663); stroke-opacity: 1; stop-color: rgb(0, 0, 0); stop-opacity: 1; opacity: 1;"/><g class="edge-midpoint-marker" pointer-events="none" aria-hidden="true" stroke-width="1" stroke-linecap="butt" stroke-linejoin="miter" style="fill: rgb(0, 0, 0); fill-opacity: 1; fill-rule: nonzero; stroke: none; stroke-opacity: 1; stop-color: rgb(0, 0, 0); stop-opacity: 1; opacity: 1;"><circle class="edge-midpoint-marker__halo" cx="88.52473434463906" cy="38.73505837270572" r="7.5" stroke-width="1" stroke-linecap="butt" stroke-linejoin="miter" style="fill: rgb(255, 255, 255); fill-opacity: 1; fill-rule: nonzero; stroke: none; stroke-opacity: 1; stop-color: rgb(0, 0, 0); stop-opacity: 1; opacity: 1;"/><circle class="edge-midpoint-marker__ring" cx="88.52473434463906" cy="38.73505837270572" r="6" stroke-width="1" stroke-linecap="butt" stroke-linejoin="miter" style="fill: rgb(255, 255, 255); fill-opacity: 1; fill-rule: nonzero; stroke: rgba(74, 74, 74, 0.663); stroke-opacity: 1; stop-color: rgb(0, 0, 0); stop-opacity: 1; opacity: 1;"/><text class="edge-midpoint-marker__index" x="88.52473434463906" y="38.73505837270572" text-anchor="middle" dominant-baseline="central" stroke-width="1" stroke-linecap="butt" stroke-linejoin="miter" style="fill: rgb(102, 102, 102); fill-opacity: 1; fill-rule: nonzero; stroke: none; stroke-opacity: 1; stop-color: rgb(0, 0, 0); stop-opacity: 1; opacity: 1;">0</text></g></g></g><g tabindex="0" role="button" data-testid="rf__edge-reactflow__edge-Duct1-cv1Duct1-cv1-port-1-SuddenAreaChange1-aqpSuddenAreaChange1-aqp-port-0" aria-label="Edge from Duct1-cv1 to SuddenAreaChange1-aqp" aria-describedby="react-flow__edge-desc-1" stroke-width="1" stroke-linecap="butt" stroke-linejoin="miter" style="fill: rgb(0, 0, 0); fill-opacity: 1; fill-rule: nonzero; stroke: none; stroke-opacity: 1; stop-color: rgb(0, 0, 0); stop-opacity: 1; opacity: 1;"><g class="custom-edge" stroke-width="1" stroke-linecap="butt" stroke-linejoin="miter" style="fill: rgb(0, 0, 0); fill-opacity: 1; fill-rule: nonzero; stroke: none; stroke-opacity: 1; stop-color: rgb(0, 0, 0); stop-opacity: 1; opacity: 1;"><path id="reactflow__edge-Duct1-cv1Duct1-cv1-port-1-SuddenAreaChange1-aqpSuddenAreaChange1-aqp-port-0" d="M184.83984375,38.990875244140625 C225.70706798817918,38.990875244140625 225.70706798817918,38.12110048065878 266.57429222635835,38.12110048065878" fill="none" class="react-flow__edge-path" stroke-width="1" stroke-linecap="butt" stroke-linejoin="miter" style="fill: none; fill-opacity: 1; fill-rule: nonzero; stroke: rgba(74, 74, 74, 0.663); stroke-opacity: 1; stop-color: rgb(0, 0, 0); stop-opacity: 1; opacity: 1;"/><g class="edge-midpoint-marker" pointer-events="none" aria-hidden="true" stroke-width="1" stroke-linecap="butt" stroke-linejoin="miter" style="fill: rgb(0, 0, 0); fill-opacity: 1; fill-rule: nonzero; stroke: none; stroke-opacity: 1; stop-color: rgb(0, 0, 0); stop-opacity: 1; opacity: 1;"><circle class="edge-midpoint-marker__halo" cx="225.70706798817918" cy="38.555987862399704" r="7.5" stroke-width="1" stroke-linecap="butt" stroke-linejoin="miter" style="fill: rgb(255, 255, 255); fill-opacity: 1; fill-rule: nonzero; stroke: none; stroke-opacity: 1; stop-color: rgb(0, 0, 0); stop-opacity: 1; opacity: 1;"/><circle class="edge-midpoint-marker__ring" cx="225.70706798817918" cy="38.555987862399704" r="6" stroke-width="1" stroke-linecap="butt" stroke-linejoin="miter" style="fill: rgb(255, 255, 255); fill-opacity: 1; fill-rule: nonzero; stroke: rgba(74, 74, 74, 0.663); stroke-opacity: 1; stop-color: rgb(0, 0, 0); stop-opacity: 1; opacity: 1;"/><text class="edge-midpoint-marker__index" x="225.70706798817918" y="38.555987862399704" text-anchor="middle" dominant-baseline="central" stroke-width="1" stroke-linecap="butt" stroke-linejoin="miter" style="fill: rgb(102, 102, 102); fill-opacity: 1; fill-rule: nonzero; stroke: none; stroke-opacity: 1; stop-color: rgb(0, 0, 0); stop-opacity: 1; opacity: 1;">1</text></g></g></g><g tabindex="0" role="button" data-testid="rf__edge-reactflow__edge-SuddenAreaChange1-aqpSuddenAreaChange1-aqp-port-1-PressureOutlet1-je5PressureOutlet1-je5-port-0" aria-label="Edge from SuddenAreaChange1-aqp to PressureOutlet1-je5" aria-describedby="react-flow__edge-desc-1" stroke-width="1" stroke-linecap="butt" stroke-linejoin="miter" style="fill: rgb(0, 0, 0); fill-opacity: 1; fill-rule: nonzero; stroke: none; stroke-opacity: 1; stop-color: rgb(0, 0, 0); stop-opacity: 1; opacity: 1;"><g class="custom-edge" stroke-width="1" stroke-linecap="butt" stroke-linejoin="miter" style="fill: rgb(0, 0, 0); fill-opacity: 1; fill-rule: nonzero; stroke: none; stroke-opacity: 1; stop-color: rgb(0, 0, 0); stop-opacity: 1; opacity: 1;"><path id="reactflow__edge-SuddenAreaChange1-aqpSuddenAreaChange1-aqp-port-1-PressureOutlet1-je5PressureOutlet1-je5-port-0" d="M314.75140126706896,38.12110048065878 C354.257853585063,38.12110048065878 354.26247423627524,38.58562117444979 393.764305903057,38.170584648578846" fill="none" class="react-flow__edge-path" stroke-width="1" stroke-linecap="butt" stroke-linejoin="miter" style="fill: none; fill-opacity: 1; fill-rule: nonzero; stroke: rgba(74, 74, 74, 0.663); stroke-opacity: 1; stop-color: rgb(0, 0, 0); stop-opacity: 1; opacity: 1;"/><g class="edge-midpoint-marker" pointer-events="none" aria-hidden="true" stroke-width="1" stroke-linecap="butt" stroke-linejoin="miter" style="fill: rgb(0, 0, 0); fill-opacity: 1; fill-rule: nonzero; stroke: none; stroke-opacity: 1; stop-color: rgb(0, 0, 0); stop-opacity: 1; opacity: 1;"><circle class="edge-midpoint-marker__halo" cx="354.25958632926756" cy="38.30148126182041" r="7.5" stroke-width="1" stroke-linecap="butt" stroke-linejoin="miter" style="fill: rgb(255, 255, 255); fill-opacity: 1; fill-rule: nonzero; stroke: none; stroke-opacity: 1; stop-color: rgb(0, 0, 0); stop-opacity: 1; opacity: 1;"/><circle class="edge-midpoint-marker__ring" cx="354.25958632926756" cy="38.30148126182041" r="6" stroke-width="1" stroke-linecap="butt" stroke-linejoin="miter" style="fill: rgb(255, 255, 255); fill-opacity: 1; fill-rule: nonzero; stroke: rgba(74, 74, 74, 0.663); stroke-opacity: 1; stop-color: rgb(0, 0, 0); stop-opacity: 1; opacity: 1;"/><text class="edge-midpoint-marker__index" x="354.25958632926756" y="38.30148126182041" text-anchor="middle" dominant-baseline="central" stroke-width="1" stroke-linecap="butt" stroke-linejoin="miter" style="fill: rgb(102, 102, 102); fill-opacity: 1; fill-rule: nonzero; stroke: none; stroke-opacity: 1; stop-color: rgb(0, 0, 0); stop-opacity: 1; opacity: 1;">2</text></g></g></g></g><g class="export-nodes"><g><svg class="box-node-frame" viewBox="0 0 120 89.82857142857142" aria-hidden="true" x="122" y="13" width="69" height="52" overflow="visible" stroke-width="1" stroke-linecap="butt" stroke-linejoin="miter" style="fill: rgb(0, 0, 0); fill-opacity: 1; fill-rule: nonzero; stroke: none; stroke-opacity: 1; stop-color: rgb(0, 0, 0); stop-opacity: 1; opacity: 1;"><rect class="box-node-fill" x="10" y="10" width="100" height="69.82857142857142" stroke-width="1" stroke-linecap="butt" stroke-linejoin="miter" style="fill: rgb(230, 230, 230); fill-opacity: 1; fill-rule: nonzero; stroke: none; stroke-opacity: 1; stop-color: rgb(0, 0, 0); stop-opacity: 1; opacity: 1;"/><svg x="10" y="10.628571428571428" width="100" height="68.57142857142857" viewBox="0 0 70 48" preserveAspectRatio="none" class="box-node-glyph" stroke-width="1" stroke-linecap="butt" stroke-linejoin="miter" style="fill: rgb(0, 0, 0); fill-opacity: 1; fill-rule: nonzero; stroke: none; stroke-opacity: 1; stop-color: rgb(0, 0, 0); stop-opacity: 1; opacity: 1;"><g stroke-width="1" stroke-linecap="butt" stroke-linejoin="miter" style="fill: rgb(0, 0, 0); fill-opacity: 1; fill-rule: nonzero; stroke: none; stroke-opacity: 1; stop-color: rgb(0, 0, 0); stop-opacity: 1; opacity: 1;"><defs stroke-width="1" stroke-linecap="butt" stroke-linejoin="miter" style="fill: rgb(0, 0, 0); fill-opacity: 1; fill-rule: nonzero; stroke: none; stroke-opacity: 1; stop-color: rgb(0, 0, 0); stop-opacity: 1; opacity: 1;"><pattern id="Duct1-cv1-hatch-t" patternUnits="userSpaceOnUse" width="3.6" height="3.6" patternTransform="rotate(45)" stroke-width="1" stroke-linecap="butt" stroke-linejoin="miter" style="fill: rgb(0, 0, 0); fill-opacity: 1; fill-rule: nonzero; stroke: none; stroke-opacity: 1; stop-color: rgb(0, 0, 0); stop-opacity: 1; opacity: 1;"><rect width="1.1" height="3.6" fill="currentColor" stroke-width="1" stroke-linecap="butt" stroke-linejoin="miter" style="fill: rgb(108, 117, 125); fill-opacity: 1; fill-rule: nonzero; stroke: none; stroke-opacity: 1; stop-color: rgb(0, 0, 0); stop-opacity: 1; opacity: 1;"/></pattern><pattern id="Duct1-cv1-hatch-b" patternUnits="userSpaceOnUse" width="3.6" height="3.6" patternTransform="rotate(-45)" stroke-width="1" stroke-linecap="butt" stroke-linejoin="miter" style="fill: rgb(0, 0, 0); fill-opacity: 1; fill-rule: nonzero; stroke: none; stroke-opacity: 1; stop-color: rgb(0, 0, 0); stop-opacity: 1; opacity: 1;"><rect width="1.1" height="3.6" fill="currentColor" stroke-width="1" stroke-linecap="butt" stroke-linejoin="miter" style="fill: rgb(108, 117, 125); fill-opacity: 1; fill-rule: nonzero; stroke: none; stroke-opacity: 1; stop-color: rgb(0, 0, 0); stop-opacity: 1; opacity: 1;"/></pattern></defs><rect x="0" y="10" width="70" height="28" fill="var(--color-surface)" stroke-width="1" stroke-linecap="butt" stroke-linejoin="miter" style="fill: rgb(255, 255, 255); fill-opacity: 1; fill-rule: nonzero; stroke: none; stroke-opacity: 1; stop-color: rgb(0, 0, 0); stop-opacity: 1; opacity: 1;"/><rect x="0" y="0" width="70" height="10" fill="url(#Duct1-cv1-hatch-t)" stroke-width="1" stroke-linecap="butt" stroke-linejoin="miter" style="fill: url(&quot;#Duct1-cv1-hatch-t&quot;); fill-opacity: 1; fill-rule: nonzero; stroke: none; stroke-opacity: 1; stop-color: rgb(0, 0, 0); stop-opacity: 1; opacity: 1;"/><rect x="0" y="38" width="70" height="10" fill="url(#Duct1-cv1-hatch-b)" stroke-width="1" stroke-linecap="butt" stroke-linejoin="miter" style="fill: url(&quot;#Duct1-cv1-hatch-b&quot;); fill-opacity: 1; fill-rule: nonzero; stroke: none; stroke-opacity: 1; stop-color: rgb(0, 0, 0); stop-opacity: 1; opacity: 1;"/><g fill="none" stroke="currentColor" stroke-linecap="square" stroke-width="1" stroke-linejoin="miter" style="fill: none; fill-opacity: 1; fill-rule: nonzero; stroke: rgb(108, 117, 125); stroke-opacity: 1; stop-color: rgb(0, 0, 0); stop-opacity: 1; opacity: 1;"><path stroke-width="1.3" d="M0 10 H70 M0 38 H70" stroke-linecap="square" stroke-linejoin="miter" style="fill: none; fill-opacity: 1; fill-rule: nonzero; stroke: rgb(108, 117, 125); stroke-opacity: 1; stop-color: rgb(0, 0, 0); stop-opacity: 1; opacity: 1;"/><path stroke-width="1.3" stroke-dasharray="2 5" d="M3 24 H67" stroke-linecap="square" stroke-linejoin="miter" style="fill: none; fill-opacity: 1; fill-rule: nonzero; stroke: rgb(108, 117, 125); stroke-opacity: 1; stop-color: rgb(0, 0, 0); stop-opacity: 1; opacity: 1;"/></g><g transform="matrix(1.80306,0,0,2.5758,-12.546681,-23.86348)" stroke-width="1" stroke-linecap="butt" stroke-linejoin="miter" style="fill: rgb(0, 0, 0); fill-opacity: 1; fill-rule: nonzero; stroke: none; stroke-opacity: 1; stop-color: rgb(0, 0, 0); stop-opacity: 1; opacity: 1;"><path fill="none" stroke="currentColor" stroke-width="0.768557" d="m 13.622782,18.585992 c 0,0 0.234375,-0.02344 0.324219,-0.05078 0.08984,-0.02734 0.234375,-0.09766 0.324219,-0.148437 0.08984,-0.05078 0.230468,-0.152344 0.320312,-0.210938 0.08984,-0.0625 0.234375,-0.171875 0.324219,-0.230469 0.08984,-0.0625 0.234375,-0.15625 0.324219,-0.199218 0.08984,-0.03906 0.230468,-0.09375 0.320312,-0.105469 0.08984,-0.01172 0.234375,-0.0078 0.324219,0.01953 0.08984,0.03125 0.234375,0.109375 0.324219,0.179688 0.08984,0.07031 0.230468,0.226562 0.320312,0.339843 0.08984,0.109375 0.234375,0.328125 0.324219,0.472656 0.08984,0.144532 0.234375,0.406251 0.324219,0.566407 0.08984,0.160156 0.230468,0.433594 0.320312,0.589844 0.08984,0.15625 0.234375,0.40625 0.324219,0.539062 0.08984,0.132813 0.234375,0.324219 0.324219,0.410156 0.08984,0.08594 0.230468,0.1875 0.320312,0.214844 0.08984,0.02344 0.234375,0.01172 0.324219,-0.03516 0.08984,-0.05078 0.234375,-0.1875 0.324219,-0.308594 0.08984,-0.121094 0.230468,-0.378906 0.320312,-0.566406 0.08984,-0.1875 0.234375,-0.546875 0.324219,-0.785156 0.08984,-0.238282 0.234375,-0.664063 0.324219,-0.929688 0.08984,-0.265625 0.230468,-0.714844 0.320312,-0.980469 0.08984,-0.261718 0.234375,-0.6875 0.324219,-0.917968 0.08984,-0.234375 0.234375,-0.582032 0.324219,-0.753907 0.08984,-0.175781 0.230468,-0.402343 0.320312,-0.492187 0.08984,-0.09375 0.234375,-0.167969 0.324219,-0.164063 0.08984,0.0078 0.234375,0.101563 0.324219,0.207032 0.08984,0.109375 0.230468,0.367187 0.320312,0.570312 0.08984,0.199219 0.234375,0.605469 0.324219,0.882813 0.08984,0.277343 0.234375,0.789062 0.324219,1.117187 0.08984,0.328125 0.230468,0.894531 0.320312,1.238281 0.08984,0.34375 0.234375,0.90625 0.32422,1.230469 0.08984,0.320313 0.234375,0.820313 0.324219,1.085938 0.08984,0.265625 0.230468,0.648437 0.320312,0.828125 0.08984,0.179687 0.234375,0.398437 0.324219,0.472656 0.08984,0.07422 0.234375,0.101562 0.324219,0.05859 0.08984,-0.04297 0.230468,-0.207032 0.320312,-0.363282 0.08984,-0.15625 0.234375,-0.503906 0.324219,-0.757812 0.08984,-0.25 0.234375,-0.742188 0.324219,-1.070313 0.08984,-0.324218 0.230468,-0.910156 0.320312,-1.273437 0.08984,-0.363281 0.234375,-0.984375 0.324219,-1.347656 0.08984,-0.363282 0.234375,-0.949219 0.324219,-1.277344 0.08594,-0.324219 0.230468,-0.816406 0.320312,-1.070313 0.08984,-0.253906 0.234375,-0.601562 0.324219,-0.757812 0.08984,-0.15625 0.234375,-0.324219 0.324219,-0.367188 0.08594,-0.04297 0.230468,-0.01563 0.320312,0.05859 0.08984,0.07031 0.234375,0.289063 0.324219,0.46875 0.08984,0.179688 0.234375,0.558594 0.324219,0.824219 0.08594,0.265625 0.230468,0.765625 0.320312,1.085937 0.08984,0.320313 0.234375,0.886719 0.324219,1.230469 0.08984,0.339844 0.234375,0.910156 0.324219,1.238281 0.08594,0.324219 0.230468,0.839844 0.320312,1.117188 0.08984,0.277344 0.234375,0.683594 0.324219,0.886719 0.08984,0.203125 0.234375,0.460937 0.320312,0.570312 0.08984,0.109375 0.234375,0.199219 0.324219,0.207031 0.08984,0.0078 0.234375,-0.06641 0.324219,-0.15625 0.08984,-0.08984 0.234375,-0.320312 0.320312,-0.492187 0.08984,-0.171875 0.234375,-0.519531 0.324219,-0.75 0.08984,-0.234375 0.234375,-0.65625 0.324219,-0.921875 0.08984,-0.261719 0.234375,-0.714844 0.320312,-0.980469 0.08984,-0.265625 0.234375,-0.691406 0.324219,-0.929687 0.08984,-0.238282 0.234375,-0.597657 0.324219,-0.785157 0.08984,-0.1875 0.234375,-0.449218 0.320312,-0.570312 0.08984,-0.121094 0.234375,-0.257813 0.324219,-0.308594 0.08984,-0.04687 0.234375,-0.05859 0.324219,-0.03516 0.08984,0.02344 0.230469,0.125 0.320312,0.210937 0.08984,0.08594 0.234375,0.277344 0.324219,0.410157 0.08984,0.128906 0.234375,0.382812 0.324219,0.539062 0.08984,0.15625 0.230469,0.429688 0.320312,0.589844 0.08984,0.160156 0.234375,0.421875 0.324219,0.566406 0.08984,0.144531 0.234375,0.363281 0.324219,0.476563 0.08984,0.109375 0.230469,0.265625 0.320312,0.335937 0.08984,0.07422 0.234375,0.152344 0.324219,0.179688 0.08984,0.02734 0.234375,0.03516 0.324219,0.02344 0.08984,-0.01172 0.230469,-0.06641 0.320312,-0.105469 0.08984,-0.04297 0.234375,-0.136718 0.324219,-0.199218 0.08984,-0.05859 0.234375,-0.167969 0.324219,-0.230469 0.08984,-0.05859 0.230469,-0.160156 0.320312,-0.210938 0.08984,-0.05078 0.234375,-0.121094 0.324219,-0.148437 0.08984,-0.02734 0.324219,-0.05469 0.324219,-0.05469" stroke-linecap="butt" stroke-linejoin="miter" style="fill: none; fill-opacity: 1; fill-rule: nonzero; stroke: rgb(108, 117, 125); stroke-opacity: 1; stop-color: rgb(0, 0, 0); stop-opacity: 1; opacity: 1;"/></g></g></svg><polygon class="box-node-port port-connected" points="109.000,53.436 117.174,44.914 109.000,36.393" stroke-width="1" stroke-linecap="butt" stroke-linejoin="miter" style="fill: rgb(108, 117, 125); fill-opacity: 1; fill-rule: nonzero; stroke: none; stroke-opacity: 1; stop-color: rgb(0, 0, 0); stop-opacity: 1; opacity: 1;"/><polygon class="box-node-port port-connected" points="11.000,36.393 19.174,44.914 11.000,53.436" stroke-width="1" stroke-linecap="butt" stroke-linejoin="miter" style="fill: rgb(108, 117, 125); fill-opacity: 1; fill-rule: nonzero; stroke: none; stroke-opacity: 1; stop-color: rgb(0, 0, 0); stop-opacity: 1; opacity: 1;"/><rect class="box-node-ring" x="11" y="11" width="98" height="67.82857142857142" stroke-width="2" fill="none" stroke-linecap="butt" stroke-linejoin="miter" style="fill: none; fill-opacity: 1; fill-rule: nonzero; stroke: rgb(108, 117, 125); stroke-opacity: 1; stop-color: rgb(0, 0, 0); stop-opacity: 1; opacity: 1;"/></svg><text text-anchor="middle" font-family="Arial, sans-serif" font-size="10" font-weight="400" fill="rgb(108, 117, 125)"><tspan x="155.9336" y="72" dominant-baseline="central">Duct1</tspan></text><text text-anchor="middle" font-family="Arial, sans-serif" font-size="9" font-weight="400" fill="rgb(102, 102, 102)" x="156.5" y="10">0</text></g><g><svg class="circular-node-frame" viewBox="0 0 100 100" aria-hidden="true" x="12" y="18" width="40" height="40" overflow="visible" stroke-width="1" stroke-linecap="butt" stroke-linejoin="miter" style="fill: rgb(0, 0, 0); fill-opacity: 1; fill-rule: nonzero; stroke: none; stroke-opacity: 1; stop-color: rgb(0, 0, 0); stop-opacity: 1; opacity: 1;"><circle class="circular-node-disc" cx="50" cy="50" r="41" stroke-width="1" stroke-linecap="butt" stroke-linejoin="miter" style="fill: rgb(255, 255, 255); fill-opacity: 1; fill-rule: nonzero; stroke: none; stroke-opacity: 1; stop-color: rgb(0, 0, 0); stop-opacity: 1; opacity: 1;"/><svg x="27.86" y="28.3621985204" width="44.28" height="32.1512652" viewBox="0 0 100 72.609" preserveAspectRatio="xMidYMid meet" class="circular-node-glyph" stroke-width="1" stroke-linecap="butt" stroke-linejoin="miter" style="fill: rgb(0, 0, 0); fill-opacity: 1; fill-rule: nonzero; stroke: none; stroke-opacity: 1; stop-color: rgb(0, 0, 0); stop-opacity: 1; opacity: 1;"><g stroke-width="1" stroke-linecap="butt" stroke-linejoin="miter" style="fill: rgb(0, 0, 0); fill-opacity: 1; fill-rule: nonzero; stroke: none; stroke-opacity: 1; stop-color: rgb(0, 0, 0); stop-opacity: 1; opacity: 1;"><g transform="scale(37.059360)" stroke-width="1" stroke-linecap="butt" stroke-linejoin="miter" style="fill: rgb(0, 0, 0); fill-opacity: 1; fill-rule: nonzero; stroke: none; stroke-opacity: 1; stop-color: rgb(0, 0, 0); stop-opacity: 1; opacity: 1;"><g id="g-layer1" transform="translate(-1.8655811,-0.7857045)" stroke-width="1" stroke-linecap="butt" stroke-linejoin="miter" style="fill: rgb(0, 0, 0); fill-opacity: 1; fill-rule: nonzero; stroke: none; stroke-opacity: 1; stop-color: rgb(0, 0, 0); stop-opacity: 1; opacity: 1;"> <g id="g-g6930" transform="matrix(0.27989613,0,0,0.27989613,1.865721,0.78566951)" stroke-width="1" stroke-linecap="butt" stroke-linejoin="miter" style="fill: rgb(0, 0, 0); fill-opacity: 1; fill-rule: nonzero; stroke: none; stroke-opacity: 1; stop-color: rgb(0, 0, 0); stop-opacity: 1; opacity: 1;"> <g fill="currentColor" fill-opacity="1" id="g-g1615" transform="translate(-149.024,-127.843)" stroke-width="1" stroke-linecap="butt" stroke-linejoin="miter" style="fill: rgb(108, 117, 125); fill-opacity: 1; fill-rule: nonzero; stroke: none; stroke-opacity: 1; stop-color: rgb(0, 0, 0); stop-opacity: 1; opacity: 1;"> <g transform="translate(152.264,134.765)" id="g-g76" stroke-width="1" stroke-linecap="butt" stroke-linejoin="miter" style="fill: rgb(108, 117, 125); fill-opacity: 1; fill-rule: nonzero; stroke: none; stroke-opacity: 1; stop-color: rgb(0, 0, 0); stop-opacity: 1; opacity: 1;"> <path d="m 2.359375,-6.15625 c 0,-0.421875 -0.34375,-0.765625 -0.78125,-0.765625 -0.421875,0 -0.765625,0.34375 -0.765625,0.765625 0,0.4375 0.34375,0.78125 0.765625,0.78125 0.4375,0 0.78125,-0.34375 0.78125,-0.78125 z m 0,0" id="g-path7094" stroke-width="1" stroke-linecap="butt" stroke-linejoin="miter" style="fill: rgb(108, 117, 125); fill-opacity: 1; fill-rule: nonzero; stroke: none; stroke-opacity: 1; stop-color: rgb(0, 0, 0); stop-opacity: 1; opacity: 1;"/> </g> </g> <g fill="currentColor" fill-opacity="1" id="g-g6642" transform="translate(-149.024,-127.843)" stroke-width="1" stroke-linecap="butt" stroke-linejoin="miter" style="fill: rgb(108, 117, 125); fill-opacity: 1; fill-rule: nonzero; stroke: none; stroke-opacity: 1; stop-color: rgb(0, 0, 0); stop-opacity: 1; opacity: 1;"> <g transform="translate(148.711,134.765)" id="g-g840" stroke-width="1" stroke-linecap="butt" stroke-linejoin="miter" style="fill: rgb(108, 117, 125); fill-opacity: 1; fill-rule: nonzero; stroke: none; stroke-opacity: 1; stop-color: rgb(0, 0, 0); stop-opacity: 1; opacity: 1;"> <path d="m 4.296875,-1.09375 c -0.0625,0.25 -0.171875,0.671875 -0.171875,0.734375 0,0.203125 0.15625,0.4375 0.46875,0.4375 0.171875,0 0.484375,-0.09375 0.625,-0.421875 C 5.296875,-0.5625 5.75,-2.4375 5.859375,-2.84375 5.875,-3 5.90625,-3.046875 6.109375,-3.328125 c 0.265625,-0.34375 0.734375,-0.8125 1.421875,-0.8125 0.265625,0 0.5,0.09375 0.5,0.578125 0,0.578125 -0.4375,1.734375 -0.625,2.234375 -0.109375,0.265625 -0.140625,0.34375 -0.140625,0.515625 0,0.578125 0.578125,0.890625 1.125,0.890625 1.0625,0 1.5625,-1.359375 1.5625,-1.546875 0,-0.140625 -0.15625,-0.140625 -0.25,-0.140625 -0.109375,0 -0.1875,0 -0.21875,0.125 -0.328125,1.109375 -0.875,1.203125 -1.03125,1.203125 -0.0625,0 -0.171875,0 -0.171875,-0.203125 0,-0.234375 0.109375,-0.484375 0.203125,-0.734375 C 8.640625,-1.625 9.09375,-2.796875 9.09375,-3.34375 9.09375,-4.265625 8.328125,-4.5 7.609375,-4.5 7.390625,-4.5 6.625,-4.5 5.875,-3.65625 5.859375,-3.78125 5.78125,-4.09375 5.40625,-4.296875 5.046875,-4.5 4.546875,-4.5 4.4375,-4.5 4.234375,-4.5 3.5,-4.5 2.796875,-3.75 2.65625,-4.25 2.109375,-4.5 1.5625,-4.5 1.203125,-4.5 0.921875,-4.296875 0.703125,-3.9375 0.453125,-3.53125 0.3125,-3 0.3125,-2.953125 c 0,0.140625 0.15625,0.140625 0.25,0.140625 0.109375,0 0.140625,0 0.1875,-0.046875 C 0.78125,-2.875 0.78125,-2.90625 0.84375,-3.15625 1.03125,-3.921875 1.25,-4.140625 1.515625,-4.140625 c 0.15625,0 0.234375,0.09375 0.234375,0.359375 0,0.171875 -0.046875,0.328125 -0.140625,0.734375 C 1.53125,-2.765625 1.4375,-2.375 1.390625,-2.15625 L 1.03125,-0.75 C 1,-0.625 0.953125,-0.421875 0.953125,-0.359375 c 0,0.203125 0.15625,0.4375 0.46875,0.4375 0.515625,0 0.625,-0.453125 0.703125,-0.75 0.09375,-0.375 0.171875,-0.6875 0.28125,-1.125 0.03125,-0.125 0.28125,-1.15625 0.3125,-1.1875 0,-0.0625 0.28125,-0.5 0.609375,-0.78125 0.28125,-0.21875 0.609375,-0.375 1.03125,-0.375 0.25,0 0.5,0.09375 0.5,0.578125 0,0.234375 -0.078125,0.515625 -0.109375,0.671875 z m 0,0" id="g-path9529" stroke-width="1" stroke-linecap="butt" stroke-linejoin="miter" style="fill: rgb(108, 117, 125); fill-opacity: 1; fill-rule: nonzero; stroke: none; stroke-opacity: 1; stop-color: rgb(0, 0, 0); stop-opacity: 1; opacity: 1;"/> </g> </g> </g> </g></g></g></svg><polygon class="circular-node-port port-connected" points="89.257,62.300 100.942,50.000 89.257,37.700" stroke-width="1" stroke-linecap="butt" stroke-linejoin="miter" style="fill: rgb(108, 117, 125); fill-opacity: 1; fill-rule: nonzero; stroke: none; stroke-opacity: 1; stop-color: rgb(0, 0, 0); stop-opacity: 1; opacity: 1;"/><circle class="circular-node-ring" cx="50" cy="50" r="39.2575" stroke-width="3.4850000000000003" fill="none" stroke-linecap="butt" stroke-linejoin="miter" style="fill: none; fill-opacity: 1; fill-rule: nonzero; stroke: rgb(108, 117, 125); stroke-opacity: 1; stop-color: rgb(0, 0, 0); stop-opacity: 1; opacity: 1;"/></svg><text text-anchor="middle" font-family="Arial, sans-serif" font-size="10" font-weight="400" fill="rgb(108, 117, 125)"><tspan x="31.760399999999997" y="62" dominant-baseline="central">MassFlowInlet1</tspan></text><text text-anchor="middle" font-family="Arial, sans-serif" font-size="9" font-weight="400" fill="rgb(102, 102, 102)" x="32" y="15">1</text></g><g><svg class="box-node-frame" viewBox="0 0 120 105.58232" aria-hidden="true" x="261" y="12" width="59" height="52" overflow="visible" stroke-width="1" stroke-linecap="butt" stroke-linejoin="miter" style="fill: rgb(0, 0, 0); fill-opacity: 1; fill-rule: nonzero; stroke: none; stroke-opacity: 1; stop-color: rgb(0, 0, 0); stop-opacity: 1; opacity: 1;"><rect class="box-node-fill" x="10" y="10" width="100" height="85.58232" stroke-width="1" stroke-linecap="butt" stroke-linejoin="miter" style="fill: rgb(230, 230, 230); fill-opacity: 1; fill-rule: nonzero; stroke: none; stroke-opacity: 1; stop-color: rgb(0, 0, 0); stop-opacity: 1; opacity: 1;"/><svg x="10" y="22.79766" width="100" height="59.987" viewBox="0 0 100 59.987" preserveAspectRatio="none" class="box-node-glyph" stroke-width="1" stroke-linecap="butt" stroke-linejoin="miter" style="fill: rgb(0, 0, 0); fill-opacity: 1; fill-rule: nonzero; stroke: none; stroke-opacity: 1; stop-color: rgb(0, 0, 0); stop-opacity: 1; opacity: 1;"><g stroke-width="1" stroke-linecap="butt" stroke-linejoin="miter" style="fill: rgb(0, 0, 0); fill-opacity: 1; fill-rule: nonzero; stroke: none; stroke-opacity: 1; stop-color: rgb(0, 0, 0); stop-opacity: 1; opacity: 1;"><defs stroke-width="1" stroke-linecap="butt" stroke-linejoin="miter" style="fill: rgb(0, 0, 0); fill-opacity: 1; fill-rule: nonzero; stroke: none; stroke-opacity: 1; stop-color: rgb(0, 0, 0); stop-opacity: 1; opacity: 1;"><marker xmlns:inkscape="http://www.inkscape.org/namespaces/inkscape" xmlns:sodipodi="http://sodipodi.sourceforge.net/DTD/sodipodi-0.dtd" style="overflow: visible; fill: rgb(0, 0, 0); fill-opacity: 1; fill-rule: nonzero; stroke: none; stroke-opacity: 1; stop-color: rgb(0, 0, 0); stop-opacity: 1; opacity: 1;" id="SuddenAreaChange1-aqp-Triangle-4" refX="0" refY="0" orient="auto-start-reverse" markerWidth="0.75" markerHeight="0.75" viewBox="0 0 1 1" preserveAspectRatio="none" stroke-width="1" stroke-linecap="butt" stroke-linejoin="miter">
      <path transform="scale(0.5)" style="fill: rgb(108, 117, 125); fill-rule: evenodd; stroke: rgb(108, 117, 125); stroke-width: 1pt; fill-opacity: 1; stroke-opacity: 1; stop-color: rgb(0, 0, 0); stop-opacity: 1; opacity: 1;" d="M 5.77,0 -2.88,5 V -5 Z" id="SuddenAreaChange1-aqp-path135-7" stroke-linecap="butt" stroke-linejoin="miter"/>
    </marker></defs><g transform="scale(19.939786)" stroke-width="1" stroke-linecap="butt" stroke-linejoin="miter" style="fill: rgb(0, 0, 0); fill-opacity: 1; fill-rule: nonzero; stroke: none; stroke-opacity: 1; stop-color: rgb(0, 0, 0); stop-opacity: 1; opacity: 1;"><g id="SuddenAreaChange1-aqp-layer1" transform="translate(-35.050914,-5.9338538)" stroke-width="1" stroke-linecap="butt" stroke-linejoin="miter" style="fill: rgb(0, 0, 0); fill-opacity: 1; fill-rule: nonzero; stroke: none; stroke-opacity: 1; stop-color: rgb(0, 0, 0); stop-opacity: 1; opacity: 1;"><path xmlns:sodipodi="http://sodipodi.sourceforge.net/DTD/sodipodi-0.dtd" xmlns:inkscape="http://www.inkscape.org/namespaces/inkscape" style="display: inline; fill: none; fill-opacity: 1; stroke: rgb(108, 117, 125); stroke-width: 0.132292; stroke-dasharray: none; stroke-opacity: 1; fill-rule: nonzero; stop-color: rgb(0, 0, 0); stop-opacity: 1; opacity: 1;" d="m 35.050914,6.8761241 h 1.949087 V 5.9999998 h 3.066011" id="SuddenAreaChange1-aqp-path14-1" stroke-linecap="butt" stroke-linejoin="miter"/><path xmlns:sodipodi="http://sodipodi.sourceforge.net/DTD/sodipodi-0.dtd" xmlns:inkscape="http://www.inkscape.org/namespaces/inkscape" style="display: inline; fill: none; fill-opacity: 1; stroke: rgb(108, 117, 125); stroke-width: 0.132292; stroke-dasharray: none; stroke-opacity: 1; fill-rule: nonzero; stop-color: rgb(0, 0, 0); stop-opacity: 1; opacity: 1;" d="m 35.050914,7.8761242 h 1.949087 v 0.9999582 l 3.066011,4.17e-5" id="SuddenAreaChange1-aqp-path15" stroke-linecap="butt" stroke-linejoin="miter"/><path xmlns:sodipodi="http://sodipodi.sourceforge.net/DTD/sodipodi-0.dtd" xmlns:inkscape="http://www.inkscape.org/namespaces/inkscape" style="display: inline; fill: none; fill-opacity: 1; stroke: rgb(108, 117, 125); stroke-width: 0.0526411; stroke-dasharray: none; stroke-dashoffset: 0; stroke-opacity: 1; marker-mid: url(&quot;#SuddenAreaChange1-aqp-Triangle-4&quot;); marker-end: url(&quot;#SuddenAreaChange1-aqp-Triangle-4&quot;); fill-rule: nonzero; stop-color: rgb(0, 0, 0); stop-opacity: 1; opacity: 1;" d="m 35.05122,7.3690169 h 2.658761 0.815795 1.206244" id="SuddenAreaChange1-aqp-path16" stroke-linecap="butt" stroke-linejoin="miter"/><g xmlns:inkscape="http://www.inkscape.org/namespaces/inkscape" xmlns:sodipodi="http://sodipodi.sourceforge.net/DTD/sodipodi-0.dtd" id="SuddenAreaChange1-aqp-g36" style="display: inline; fill: rgb(0, 0, 0); fill-opacity: 1; fill-rule: nonzero; stroke: none; stroke-opacity: 1; stop-color: rgb(0, 0, 0); stop-opacity: 1; opacity: 1;" transform="matrix(0.98961083,0,0,1,0.41484021,0)" stroke-width="1" stroke-linecap="butt" stroke-linejoin="miter">
      <g id="SuddenAreaChange1-aqp-g25-8" transform="translate(9.9999996,-0.12387557)" stroke-width="1" stroke-linecap="butt" stroke-linejoin="miter" style="fill: rgb(0, 0, 0); fill-opacity: 1; fill-rule: nonzero; stroke: none; stroke-opacity: 1; stop-color: rgb(0, 0, 0); stop-opacity: 1; opacity: 1;">
        <path style="fill: none; fill-opacity: 1; stroke: rgb(108, 117, 125); stroke-width: 0.0529191; stroke-dasharray: none; stroke-dashoffset: 0; stroke-opacity: 1; marker-mid: url(&quot;#SuddenAreaChange1-aqp-Triangle-4&quot;); marker-end: url(&quot;#SuddenAreaChange1-aqp-Triangle-4&quot;); fill-rule: nonzero; stop-color: rgb(0, 0, 0); stop-opacity: 1; opacity: 1;" d="m 25.000001,7.3348014 c 0,0 1.641598,0.01077 2.473035,0 0.527253,-0.00683 1.081248,-0.6630584 1.407372,-0.8070313 0.322165,-0.142225 0.833866,-0.1512983 0.833866,-0.1512983" id="SuddenAreaChange1-aqp-path23-9" stroke-linecap="butt" stroke-linejoin="miter"/>
        <path style="fill: none; fill-opacity: 1; stroke: rgb(108, 117, 125); stroke-width: 0.0529167; stroke-dasharray: none; stroke-dashoffset: 0; stroke-opacity: 1; marker-mid: url(&quot;#SuddenAreaChange1-aqp-Triangle-4&quot;); marker-end: url(&quot;#SuddenAreaChange1-aqp-Triangle-4&quot;); fill-rule: nonzero; stop-color: rgb(0, 0, 0); stop-opacity: 1; opacity: 1;" d="m 25,7.1754211 c 0.736018,0.00828 1.773191,0.012371 2.209707,-0.00175 0.282103,-0.00912 0.790292,-0.3040192 0.790292,-0.3040192 0,0 0.137782,-0.3179213 2e-6,-0.4501783 -0.171911,-0.165019 -0.497971,-0.1962073 -0.685056,0.00585 -0.128604,0.1388928 -0.0058,0.4092563 -0.0058,0.4092563" id="SuddenAreaChange1-aqp-path24-8" stroke-linecap="butt" stroke-linejoin="miter"/>
      </g>
      <path style="fill: none; fill-opacity: 1; stroke: rgb(108, 117, 125); stroke-width: 0.0529167; stroke-dasharray: none; stroke-dashoffset: 0; stroke-opacity: 1; marker-mid: url(&quot;#SuddenAreaChange1-aqp-Triangle-4&quot;); marker-end: url(&quot;#SuddenAreaChange1-aqp-Triangle-4&quot;); fill-rule: nonzero; stop-color: rgb(0, 0, 0); stop-opacity: 1; opacity: 1;" d="m 38.000001,7.2259977 c 0,0 0.615951,-0.1146493 0.864303,-0.2405869 C 39.246292,6.791707 39.714348,6.774934 39.714348,6.774934" id="SuddenAreaChange1-aqp-path27-3" stroke-linecap="butt" stroke-linejoin="miter"/>
    </g><g xmlns:inkscape="http://www.inkscape.org/namespaces/inkscape" xmlns:sodipodi="http://sodipodi.sourceforge.net/DTD/sodipodi-0.dtd" id="SuddenAreaChange1-aqp-g39" transform="matrix(0.98961429,0,0,-0.99976423,0.41471085,14.744186)" style="display: inline; fill: rgb(0, 0, 0); fill-opacity: 1; fill-rule: nonzero; stroke: none; stroke-opacity: 1; stop-color: rgb(0, 0, 0); stop-opacity: 1; opacity: 1;" stroke-width="1" stroke-linecap="butt" stroke-linejoin="miter">
      <g id="SuddenAreaChange1-aqp-g38" transform="translate(9.9999996,-0.12387557)" stroke-width="1" stroke-linecap="butt" stroke-linejoin="miter" style="fill: rgb(0, 0, 0); fill-opacity: 1; fill-rule: nonzero; stroke: none; stroke-opacity: 1; stop-color: rgb(0, 0, 0); stop-opacity: 1; opacity: 1;">
        <path style="fill: none; fill-opacity: 1; stroke: rgb(108, 117, 125); stroke-width: 0.0529191; stroke-dasharray: none; stroke-dashoffset: 0; stroke-opacity: 1; marker-mid: url(&quot;#SuddenAreaChange1-aqp-Triangle-4&quot;); marker-end: url(&quot;#SuddenAreaChange1-aqp-Triangle-4&quot;); fill-rule: nonzero; stop-color: rgb(0, 0, 0); stop-opacity: 1; opacity: 1;" d="m 25.000001,7.3348014 c 0,0 1.641598,0.01077 2.473035,0 0.527253,-0.00683 1.081248,-0.6630584 1.407372,-0.8070313 0.322165,-0.142225 0.833866,-0.1512983 0.833866,-0.1512983" id="SuddenAreaChange1-aqp-path37" stroke-linecap="butt" stroke-linejoin="miter"/>
        <path style="fill: none; fill-opacity: 1; stroke: rgb(108, 117, 125); stroke-width: 0.0529167; stroke-dasharray: none; stroke-dashoffset: 0; stroke-opacity: 1; marker-mid: url(&quot;#SuddenAreaChange1-aqp-Triangle-4&quot;); marker-end: url(&quot;#SuddenAreaChange1-aqp-Triangle-4&quot;); fill-rule: nonzero; stop-color: rgb(0, 0, 0); stop-opacity: 1; opacity: 1;" d="m 25,7.1754211 c 0,0 1.596267,0.01809 2.209707,-0.00175 0.282103,-0.00912 0.790292,-0.3040192 0.790292,-0.3040192 0,0 0.137782,-0.3179213 2e-6,-0.4501783 -0.171911,-0.165019 -0.497971,-0.1962073 -0.685056,0.00585 -0.128604,0.1388928 -0.0058,0.4092563 -0.0058,0.4092563" id="SuddenAreaChange1-aqp-path38" stroke-linecap="butt" stroke-linejoin="miter"/>
      </g>
      <path style="fill: none; fill-opacity: 1; stroke: rgb(108, 117, 125); stroke-width: 0.0529167; stroke-dasharray: none; stroke-dashoffset: 0; stroke-opacity: 1; marker-mid: url(&quot;#SuddenAreaChange1-aqp-Triangle-4&quot;); marker-end: url(&quot;#SuddenAreaChange1-aqp-Triangle-4&quot;); fill-rule: nonzero; stop-color: rgb(0, 0, 0); stop-opacity: 1; opacity: 1;" d="m 38.000001,7.2259977 c 0,0 0.615951,-0.1146493 0.864303,-0.2405869 C 39.246292,6.791707 39.714348,6.774934 39.714348,6.774934" id="SuddenAreaChange1-aqp-path39" stroke-linecap="butt" stroke-linejoin="miter"/>
    </g><path xmlns:inkscape="http://www.inkscape.org/namespaces/inkscape" xmlns:sodipodi="http://sodipodi.sourceforge.net/DTD/sodipodi-0.dtd" style="fill: none; fill-opacity: 1; stroke: rgb(255, 255, 255); stroke-width: 0.125894; stroke-linecap: square; stroke-dasharray: none; stroke-dashoffset: 0; stroke-opacity: 1; fill-rule: nonzero; stop-color: rgb(0, 0, 0); stop-opacity: 1; opacity: 1;" d="m 40.003031,8.746284 2e-6,-2.6170231 v 0" id="SuddenAreaChange1-aqp-path42" stroke-linejoin="miter"/><path xmlns:inkscape="http://www.inkscape.org/namespaces/inkscape" xmlns:sodipodi="http://sodipodi.sourceforge.net/DTD/sodipodi-0.dtd" style="display: inline; fill: rgb(255, 255, 255); fill-opacity: 1; stroke: none; stroke-width: 0.00205218; stroke-linecap: square; stroke-dasharray: none; stroke-dashoffset: 0; stroke-opacity: 1; marker-mid: url(&quot;#SuddenAreaChange1-aqp-Triangle&quot;); marker-end: url(&quot;#SuddenAreaChange1-aqp-Triangle&quot;); fill-rule: nonzero; stop-color: rgb(0, 0, 0); stop-opacity: 1; opacity: 1;" d="M 37.098976,8.3068355 V 7.8066077 H 36.108914 35.118852 V 7.765564 7.7245203 l 0.02352,-0.00309 c 0.0324,-0.00425 1.960161,-0.00454 1.994316,-2.91e-4 l 0.02749,0.00342 0.0011,0.046645 0.0012,0.046645 0.07493,-0.04076 c 0.04121,-0.022419 0.07895,-0.040755 0.08387,-0.040747 0.01349,1.98e-5 0.109616,0.026441 0.158271,0.043501 0.108182,0.037932 0.252723,0.1016925 0.377815,0.1666632 l 0.06893,0.035802 -0.02569,0.02359 c -0.02999,0.027537 -0.03588,0.021741 0.04943,0.048635 0.03038,0.00958 0.05757,0.019671 0.06042,0.022431 0.0074,0.00713 0.02786,0.092134 0.03385,0.1404774 0.0054,0.043576 0.0033,0.1053715 -0.0045,0.1324833 l -0.0047,0.016217 -0.02576,-0.028619 c -0.01417,-0.015741 -0.0266,-0.027689 -0.02762,-0.026552 -10e-4,0.00114 -0.01272,0.040036 -0.02601,0.086443 l -0.02416,0.084376 -0.0343,0.017788 c -0.139346,0.072258 -0.305584,0.074406 -0.433379,0.0056 -0.01734,-0.00934 -0.03581,-0.02024 -0.04105,-0.024231 l -0.0095,-0.00726 0.03159,-0.029814 c 0.01738,-0.016398 0.0307,-0.03072 0.0296,-0.031827 -0.0011,-0.00111 -0.03558,-0.012551 -0.07662,-0.025432 -0.08489,-0.026638 -0.07932,-0.021713 -0.08706,-0.076979 -0.0034,-0.024415 -0.0034,-0.044443 2.03e-4,-0.079041 0.0041,-0.039525 0.01783,-0.1077937 0.02271,-0.1127232 8.32e-4,-8.414e-4 0.01835,0.00626 0.03892,0.015788 0.02058,0.00952 0.03854,0.016175 0.03992,0.014779 0.0044,-0.00442 -0.01995,-0.2429883 -0.02461,-0.241418 -0.01072,0.00361 -0.194174,0.1377584 -0.193256,0.1413151 5.71e-4,0.00221 0.01985,0.012442 0.04283,0.022737 0.03878,0.017368 0.04166,0.019465 0.03993,0.029054 -10e-4,0.00568 -0.0067,0.032659 -0.01261,0.059945 -0.0112,0.051706 -0.01581,0.1360214 -0.0092,0.1681096 0.0029,0.013877 0.0024,0.014963 -0.0052,0.012954 -0.0046,-0.00121 -0.0083,-5.821e-4 -0.0083,0.00139 -8.5e-5,0.00866 0.05088,0.2313343 0.0537,0.2346519 0.0017,0.00203 0.0191,-0.011389 0.0386,-0.029822 l 0.03545,-0.033515 0.02403,0.01649 c 0.08585,0.058914 0.183872,0.085489 0.298287,0.08087 0.08293,-0.00335 0.141612,-0.017568 0.216831,-0.05254 0.02453,-0.011407 0.06487,-0.023552 0.136972,-0.041241 0.05621,-0.01379 0.102935,-0.025818 0.103836,-0.026728 8.9e-4,-9.102e-4 -0.01436,-0.019271 -0.03392,-0.0408 l -0.03556,-0.039144 0.0085,-0.027944 c 0.01465,-0.04792 0.01884,-0.097701 0.01311,-0.1554798 -0.0028,-0.027892 -0.0086,-0.067312 -0.01307,-0.0876 -0.0044,-0.020288 -0.0072,-0.037711 -0.0062,-0.038719 9.94e-4,-0.00101 0.0074,1.469e-4 0.0143,0.00257 0.0094,0.00331 0.01248,0.00317 0.01249,-5.557e-4 1.8e-5,-0.00954 -0.0461,-0.2323596 -0.04871,-0.2353193 -0.0014,-0.00165 -0.02187,0.014311 -0.04538,0.035458 l -0.04275,0.038447 -0.08603,-0.044511 C 37.698337,7.7975898 37.519503,7.7242514 37.388336,7.691096 c -0.03215,-0.00813 -0.04484,-0.014729 -0.124099,-0.064592 -0.04856,-0.030547 -0.08997,-0.055539 -0.09204,-0.055539 -0.0021,0 -0.0037,0.021544 -0.0037,0.047877 v 0.047877 l -0.08489,-0.00343 c -0.104706,-0.00424 -1.617111,-0.00396 -1.818523,3.319e-4 l -0.146259,0.00312 v -0.051336 -0.051336 l 0.381155,-0.00275 c 0.490305,-0.00354 1.553366,-0.00354 1.763638,-4e-6 l 0.162624,0.00273 v 0.04687 c 0,0.025779 8.82e-4,0.04687 0.002,0.04687 0.0011,0 0.03652,-0.019719 0.07876,-0.04382 l 0.07679,-0.04382 0.03477,0.00683 c 0.137725,0.027065 0.28918,0.09692 0.468439,0.2160571 0.10032,0.066673 0.188165,0.1326579 0.380478,0.2857954 0.180776,0.1439504 0.270485,0.2105595 0.332407,0.2468125 0.0073,0.00428 0.01327,0.00971 0.01323,0.012061 -3.6e-5,0.00235 -0.0083,0.022722 -0.01841,0.045267 -0.01009,0.022545 -0.01761,0.04174 -0.0167,0.042657 9.17e-4,9.155e-4 0.04587,-0.00324 0.09991,-0.00924 l 0.09826,-0.010903 0.03328,0.010625 c 0.145436,0.046425 0.37876,0.08581 0.592183,0.09996 l 0.04181,0.00277 0.0012,0.048776 0.0012,0.048776 0.105206,-0.05866 c 0.05786,-0.032263 0.104662,-0.060501 0.103997,-0.062751 -0.0011,-0.00384 -0.198001,-0.1256346 -0.203625,-0.1259758 -0.0014,-8.7e-5 -0.0033,0.019263 -0.0042,0.043001 -8.64e-4,0.023737 -0.003,0.044565 -0.0047,0.046283 -0.0034,0.00348 -0.111283,-0.004 -0.193096,-0.013397 -0.157239,-0.018058 -0.32038,-0.050498 -0.426136,-0.08473 l -0.03784,-0.012248 -0.05396,-0.074526 c -0.02968,-0.040989 -0.05523,-0.073021 -0.05678,-0.071182 -0.0015,0.00184 -0.0099,0.019622 -0.01848,0.039517 -0.0086,0.019895 -0.01795,0.036174 -0.02074,0.036174 -0.01536,0 -0.149049,-0.098463 -0.337282,-0.2484037 -0.198957,-0.1584826 -0.28457,-0.2227009 -0.386615,-0.2900001 -0.171491,-0.113098 -0.32745,-0.1856911 -0.460256,-0.2142314 -0.04174,-0.00897 -0.04545,-0.010738 -0.130899,-0.062278 -0.07471,-0.045063 -0.08836,-0.051973 -0.09074,-0.045914 -0.0015,0.00392 -0.0029,0.024806 -0.0031,0.046407 l -2.88e-4,0.039274 -1.153708,4.921e-4 -1.153708,4.921e-4 v -0.053202 -0.053202 h 1.260078 1.260079 v 0.047542 c 0,0.026148 9.69e-4,0.047542 0.0021,0.047542 0.0012,0 0.0388,-0.021394 0.08358,-0.047542 l 0.08144,-0.047542 h 0.323487 0.323487 v 0.047542 c 0,0.026148 0.0014,0.047542 0.0031,0.047542 0.0017,0 0.03961,-0.021394 0.08426,-0.047542 l 0.08118,-0.047542 h 0.519186 0.519185 v 0.047542 c 0,0.026148 0.0012,0.047542 0.0026,0.047542 0.0045,0 0.210106,-0.1209981 0.210053,-0.1236176 -4.1e-5,-0.00207 -0.198657,-0.119528 -0.209232,-0.1237403 -0.0019,-7.567e-4 -0.0035,0.020171 -0.0035,0.046509 v 0.047887 H 39.139686 38.61939 l -0.08108,-0.047542 c -0.0446,-0.026148 -0.08201,-0.047542 -0.08315,-0.047542 -0.0011,0 -0.0021,0.021394 -0.0021,0.047542 v 0.047542 h -0.324606 -0.324608 l -0.08144,-0.047515 -0.08144,-0.047516 -0.0012,0.047516 -0.0012,0.047515 h -1.259949 -1.259949 v -0.048844 -0.048844 l 1.153373,2.672e-4 1.153373,2.673e-4 0.0014,0.044108 c 7.47e-4,0.024259 0.0025,0.045236 0.0039,0.046615 0.0014,0.00138 0.04208,-0.021419 0.09046,-0.050663 0.08223,-0.049696 0.0903,-0.053635 0.123666,-0.060331 0.07823,-0.0157 0.175231,-0.052191 0.276781,-0.1041232 0.154125,-0.07882 0.28686,-0.1713626 0.579861,-0.404276 0.15545,-0.1235712 0.216827,-0.1703772 0.272731,-0.2079848 0.04534,-0.030497 0.06262,-0.040676 0.06498,-0.038271 9.95e-4,0.00102 0.009,0.018294 0.0177,0.038393 0.0087,0.020099 0.01751,0.036842 0.01948,0.037207 0.002,3.651e-4 0.02683,-0.031608 0.05524,-0.071052 0.0284,-0.039444 0.05436,-0.073256 0.05769,-0.075138 0.02415,-0.013659 0.188796,-0.054213 0.292209,-0.071977 0.1212,-0.020818 0.353647,-0.045305 0.360862,-0.038015 0.0017,0.0017 0.0038,0.022517 0.0046,0.046254 8.64e-4,0.023737 0.0028,0.043159 0.0044,0.043159 0.006,0 0.202082,-0.1221917 0.202336,-0.1260905 1.47e-4,-0.00227 -0.04662,-0.030396 -0.103927,-0.062494 l -0.104195,-0.05836 -0.0012,0.048629 -0.0012,0.048629 -0.03772,0.00274 c -0.221059,0.016071 -0.413694,0.047219 -0.568417,0.091911 l -0.0643,0.018574 -0.09699,-0.010672 c -0.05335,-0.00587 -0.0976,-0.010064 -0.09833,-0.00932 -7.33e-4,7.435e-4 0.0074,0.021455 0.0181,0.046026 0.01834,0.042155 0.01901,0.044933 0.01184,0.049255 -0.07363,0.044397 -0.168224,0.1145218 -0.345593,0.2562067 -0.141564,0.1130836 -0.241983,0.1897863 -0.319496,0.2440389 -0.184641,0.1292345 -0.345608,0.2101601 -0.489175,0.2459323 -0.07007,0.017459 -0.06077,0.019357 -0.147877,-0.030165 l -0.07714,-0.043852 -0.0011,0.04693 -0.0011,0.04693 -0.08272,0.00271 c -0.108083,0.00354 -1.710837,0.00352 -2.000455,-1.77e-5 l -0.223992,-0.00274 v -0.051271 -0.051271 l 0.05421,0.00305 c 0.07442,0.00419 1.883011,0.00451 1.945349,3.413e-4 l 0.05012,-0.00335 v 0.047791 c 0,0.031759 0.0015,0.047791 0.0045,0.047791 0.0025,0 0.04342,-0.02457 0.09103,-0.0546 0.0848,-0.053488 0.08761,-0.05488 0.137705,-0.06837 0.133756,-0.036015 0.277461,-0.095123 0.470891,-0.1936845 0.05535,-0.028205 0.101963,-0.051281 0.103579,-0.051281 0.0016,0 0.0214,0.016743 0.04396,0.037207 0.02256,0.020464 0.04223,0.037203 0.0437,0.037198 0.0023,-7.4e-6 0.05043,-0.2321991 0.04991,-0.2405883 -9.9e-5,-0.00159 -0.0058,-9.075e-4 -0.01266,0.00151 -0.0069,0.00242 -0.0133,0.00357 -0.0143,0.00257 -9.95e-4,-0.00101 0.0018,-0.018431 0.0062,-0.038719 0.0044,-0.020288 0.0103,-0.059708 0.01307,-0.0876 0.0058,-0.058316 0.0013,-0.1101981 -0.01345,-0.1556131 l -0.0087,-0.026875 0.03529,-0.038216 c 0.01941,-0.021019 0.03529,-0.039309 0.03529,-0.040646 0,-0.00134 -0.04741,-0.014207 -0.105347,-0.028601 -0.07434,-0.018468 -0.114982,-0.030766 -0.138077,-0.04178 -0.06651,-0.031719 -0.13718,-0.048982 -0.214787,-0.052466 -0.108994,-0.00489 -0.215115,0.024177 -0.299519,0.082049 l -0.02337,0.016021 -0.03522,-0.03352 c -0.01937,-0.018436 -0.0364,-0.03233 -0.03784,-0.030874 -0.0023,0.00233 -0.05402,0.2269268 -0.05407,0.2348356 -1.1e-5,0.00171 0.0038,0.0031 0.0084,0.0031 0.0061,0 0.0079,0.00203 0.0065,0.00723 -0.01025,0.037215 -0.0049,0.1237217 0.01225,0.1966355 0.0058,0.024589 0.0098,0.045332 0.009,0.046097 -7.93e-4,7.647e-4 -0.01977,0.00969 -0.04217,0.019844 -0.0224,0.010149 -0.04123,0.020101 -0.04184,0.022116 -0.0011,0.0036 0.183854,0.1389383 0.193082,0.1412927 0.0033,8.414e-4 0.0082,-0.035078 0.01623,-0.1189371 0.0063,-0.066078 0.01053,-0.1211305 0.0093,-0.1223393 -0.0012,-0.00121 -0.0191,0.0055 -0.03979,0.014916 -0.02069,0.00941 -0.03838,0.016334 -0.03933,0.01538 -0.0048,-0.00486 -0.01862,-0.07159 -0.02294,-0.1108282 -0.0037,-0.033617 -0.0038,-0.053143 -3.4e-4,-0.07906 0.0076,-0.057222 0.0023,-0.052353 0.08426,-0.07761 0.03945,-0.012158 0.07379,-0.0234 0.07632,-0.024981 0.0029,-0.00178 -0.0071,-0.01438 -0.02628,-0.033139 l -0.03089,-0.030263 0.02118,-0.014411 c 0.05976,-0.040669 0.132209,-0.062495 0.218109,-0.065712 0.08963,-0.00336 0.16411,0.013431 0.243558,0.054896 l 0.03569,0.018627 0.02379,0.08459 c 0.01308,0.046525 0.02498,0.08459 0.02644,0.08459 0.0015,0 0.01396,-0.011896 0.02777,-0.026437 l 0.02512,-0.026437 0.0044,0.015068 c 0.0072,0.024854 0.0094,0.091159 0.0044,0.130823 -0.0026,0.020464 -0.01047,0.060859 -0.01747,0.089768 l -0.01273,0.052561 -0.06975,0.023493 -0.06975,0.023492 0.02598,0.023481 0.02598,0.023481 -0.08145,0.041662 c -0.138705,0.070946 -0.268649,0.1277361 -0.374754,0.1637823 -0.04906,0.016665 -0.131004,0.039401 -0.146534,0.040654 -0.0062,5.027e-4 -0.03892,-0.014753 -0.08408,-0.039238 -0.04064,-0.022033 -0.07516,-0.04006 -0.07671,-0.04006 -0.0016,0 -0.0028,0.021092 -0.0028,0.046871 v 0.046871 l -0.160225,0.00274 c -0.207046,0.00354 -1.195346,0.00353 -1.583981,-8e-6 l -0.301376,-0.00275 v -0.040661 -0.040661 h 0.990062 0.990062 V 6.5043616 6.0661455 h 1.415542 1.415543 v 1.3704589 1.370459 H 38.514422 37.09888 Z m 2.651797,-0.2715673 c 0.05811,-0.031126 0.105647,-0.057856 0.105647,-0.059399 0,-0.00278 -0.202045,-0.1320545 -0.206389,-0.1320545 -0.0012,0 -0.0023,0.021348 -0.0023,0.047439 v 0.047439 l -0.01125,-0.00185 c -0.0062,-0.00102 -0.03611,-0.00478 -0.06649,-0.00836 -0.168242,-0.01984 -0.36346,-0.065335 -0.505328,-0.1177644 -0.101571,-0.037537 -0.08836,-0.027 -0.145409,-0.11594 -0.02754,-0.042934 -0.05118,-0.077366 -0.05253,-0.076515 -0.0014,8.52e-4 -0.01164,0.020424 -0.02286,0.043496 -0.01474,0.03031 -0.02212,0.041417 -0.02659,0.040033 -0.0034,-0.00105 -0.02644,-0.00951 -0.05119,-0.01878 -0.106223,-0.039805 -0.276825,-0.0884 -0.458146,-0.1305001 -0.141747,-0.032912 -0.28013,-0.061654 -0.282978,-0.058776 -0.0032,0.0032 -0.0094,0.032236 -0.0095,0.044306 -9.5e-5,0.010208 0.0014,0.010789 0.0582,0.021971 0.148989,0.029352 0.375048,0.083825 0.498099,0.1200253 0.06563,0.019308 0.182552,0.058339 0.210021,0.070111 l 0.01569,0.00672 -0.02084,0.039994 c -0.01146,0.021997 -0.0202,0.040634 -0.01943,0.041417 7.86e-4,7.832e-4 0.0454,-0.00102 0.09916,-0.00401 l 0.09776,-0.00543 0.03281,0.013997 c 0.150639,0.064271 0.433385,0.1312508 0.625598,0.1481974 l 0.0323,0.00285 -0.0024,0.048985 c -0.0013,0.026942 -0.0013,0.048985 1.3e-4,0.048985 0.0014,0 0.05011,-0.025467 0.108214,-0.056593 z M 38.106154,7.2379169 c 0.284892,-0.059193 0.533201,-0.1257593 0.679995,-0.1822916 0.02001,-0.00771 0.03683,-0.013507 0.03737,-0.012888 5.5e-4,6.191e-4 0.01042,0.020195 0.02195,0.043501 0.01153,0.023306 0.02163,0.042375 0.02244,0.042375 8.12e-4,0 0.02427,-0.035376 0.05213,-0.078613 l 0.05065,-0.078613 0.05114,-0.020116 c 0.143315,-0.056374 0.314915,-0.1004884 0.49153,-0.1263595 0.03924,-0.00575 0.08553,-0.011662 0.102878,-0.013144 l 0.03154,-0.00269 v 0.046082 c 0,0.025345 0.0014,0.046075 0.0031,0.046066 0.005,-2.62e-5 0.203114,-0.1268431 0.204329,-0.1307668 9.05e-4,-0.00304 -0.206855,-0.117269 -0.213306,-0.117269 -0.0012,0 -0.0011,0.021992 3.67e-4,0.048871 l 0.0026,0.048871 -0.04661,0.00501 C 39.392432,6.77808 39.164813,6.83222 38.997917,6.898735 l -0.04642,0.018501 -0.09666,-0.0057 c -0.05316,-0.00314 -0.09737,-0.00498 -0.09823,-0.00411 -8.64e-4,8.757e-4 0.0078,0.019669 0.01935,0.041765 0.01151,0.022095 0.02045,0.04063 0.01988,0.041187 -0.0041,0.00396 -0.144261,0.051576 -0.206821,0.070276 -0.127637,0.038151 -0.371466,0.09696 -0.542917,0.130947 l -0.02864,0.00568 2.88e-4,0.01631 c 4.19e-4,0.023512 0.0051,0.039047 0.01178,0.039047 0.0032,0 0.03767,-0.00662 0.07663,-0.014719 z" id="SuddenAreaChange1-aqp-path45" stroke-linejoin="miter"/></g></g></g></svg><polygon class="box-node-port port-connected" points="109.000,62.695 118.500,52.791 109.000,42.887" stroke-width="1" stroke-linecap="butt" stroke-linejoin="miter" style="fill: rgb(108, 117, 125); fill-opacity: 1; fill-rule: nonzero; stroke: none; stroke-opacity: 1; stop-color: rgb(0, 0, 0); stop-opacity: 1; opacity: 1;"/><polygon class="box-node-port port-connected" points="11.000,42.887 20.500,52.791 11.000,62.695" stroke-width="1" stroke-linecap="butt" stroke-linejoin="miter" style="fill: rgb(108, 117, 125); fill-opacity: 1; fill-rule: nonzero; stroke: none; stroke-opacity: 1; stop-color: rgb(0, 0, 0); stop-opacity: 1; opacity: 1;"/><rect class="box-node-ring" x="11" y="11" width="98" height="83.58232" stroke-width="2" fill="none" stroke-linecap="butt" stroke-linejoin="miter" style="fill: none; fill-opacity: 1; fill-rule: nonzero; stroke: rgb(108, 117, 125); stroke-opacity: 1; stop-color: rgb(0, 0, 0); stop-opacity: 1; opacity: 1;"/></svg><text text-anchor="middle" font-family="Arial, sans-serif" font-size="10" font-weight="400" fill="rgb(108, 117, 125)"><tspan x="289.901" y="71" dominant-baseline="central">SuddenAreaChange1</tspan></text><text text-anchor="middle" font-family="Arial, sans-serif" font-size="9" font-weight="400" fill="rgb(102, 102, 102)" x="290.5" y="9">2</text></g><g><svg class="circular-node-frame" viewBox="0 0 100 100" aria-hidden="true" x="390" y="18" width="40" height="40" overflow="visible" stroke-width="1" stroke-linecap="butt" stroke-linejoin="miter" style="fill: rgb(0, 0, 0); fill-opacity: 1; fill-rule: nonzero; stroke: none; stroke-opacity: 1; stop-color: rgb(0, 0, 0); stop-opacity: 1; opacity: 1;"><circle class="circular-node-disc" cx="50" cy="50" r="41" stroke-width="1" stroke-linecap="butt" stroke-linejoin="miter" style="fill: rgb(255, 255, 255); fill-opacity: 1; fill-rule: nonzero; stroke: none; stroke-opacity: 1; stop-color: rgb(0, 0, 0); stop-opacity: 1; opacity: 1;"/><svg x="31.181" y="33.0393235568" width="37.638" height="40.38256296" viewBox="0 0 100 107.292" preserveAspectRatio="xMidYMid meet" class="circular-node-glyph" stroke-width="1" stroke-linecap="butt" stroke-linejoin="miter" style="fill: rgb(0, 0, 0); fill-opacity: 1; fill-rule: nonzero; stroke: none; stroke-opacity: 1; stop-color: rgb(0, 0, 0); stop-opacity: 1; opacity: 1;"><g stroke-width="1" stroke-linecap="butt" stroke-linejoin="miter" style="fill: rgb(0, 0, 0); fill-opacity: 1; fill-rule: nonzero; stroke: none; stroke-opacity: 1; stop-color: rgb(0, 0, 0); stop-opacity: 1; opacity: 1;"><g transform="scale(47.244065)" stroke-width="1" stroke-linecap="butt" stroke-linejoin="miter" style="fill: rgb(0, 0, 0); fill-opacity: 1; fill-rule: nonzero; stroke: none; stroke-opacity: 1; stop-color: rgb(0, 0, 0); stop-opacity: 1; opacity: 1;"><g id="g-layer1" transform="translate(-14.089429,-14.348699)" stroke-width="1" stroke-linecap="butt" stroke-linejoin="miter" style="fill: rgb(0, 0, 0); fill-opacity: 1; fill-rule: nonzero; stroke: none; stroke-opacity: 1; stop-color: rgb(0, 0, 0); stop-opacity: 1; opacity: 1;"> <g id="g-g4255" transform="matrix(0.352778,0,0,0.352778,14.089517,14.348699)" stroke-width="1" stroke-linecap="butt" stroke-linejoin="miter" style="fill: rgb(0, 0, 0); fill-opacity: 1; fill-rule: nonzero; stroke: none; stroke-opacity: 1; stop-color: rgb(0, 0, 0); stop-opacity: 1; opacity: 1;"> <g fill="currentColor" fill-opacity="1" id="g-g5485" transform="translate(-148.556,-130.265)" stroke-width="1" stroke-linecap="butt" stroke-linejoin="miter" style="fill: rgb(108, 117, 125); fill-opacity: 1; fill-rule: nonzero; stroke: none; stroke-opacity: 1; stop-color: rgb(0, 0, 0); stop-opacity: 1; opacity: 1;"> <g transform="translate(148.712,134.765)" id="g-g3296" stroke-width="1" stroke-linecap="butt" stroke-linejoin="miter" style="fill: rgb(108, 117, 125); fill-opacity: 1; fill-rule: nonzero; stroke: none; stroke-opacity: 1; stop-color: rgb(0, 0, 0); stop-opacity: 1; opacity: 1;"> <path d="M 0.515625,1.28125 C 0.484375,1.421875 0.46875,1.4375 0.453125,1.453125 0.40625,1.46875 0.296875,1.46875 0.203125,1.46875 c -0.171875,0 -0.359375,0 -0.359375,0.28125 0,0.109375 0.09375,0.1875 0.203125,0.1875 0.28125,0 0.609375,-0.03125 0.90625,-0.03125 0.359375,0 0.734375,0.03125 1.078125,0.03125 0.0625,0 0.25,0 0.25,-0.296875 0,-0.171875 -0.15625,-0.171875 -0.25,-0.171875 -0.140625,0 -0.3125,0 -0.4375,-0.015625 l 0.4375,-1.734375 c 0.140625,0.140625 0.46875,0.359375 1,0.359375 1.734375,0 2.8125,-1.578125 2.8125,-2.9375 C 5.84375,-4.09375 4.921875,-4.5 4.09375,-4.5 3.390625,-4.5 2.875,-4.109375 2.71875,-3.96875 2.328125,-4.5 1.671875,-4.5 1.5625,-4.5 1.203125,-4.5 0.90625,-4.296875 0.703125,-3.9375 0.453125,-3.53125 0.3125,-3 0.3125,-2.953125 c 0,0.140625 0.15625,0.140625 0.25,0.140625 0.109375,0 0.140625,0 0.1875,-0.046875 C 0.78125,-2.875 0.78125,-2.90625 0.84375,-3.15625 c 0.1875,-0.796875 0.421875,-0.984375 0.671875,-0.984375 0.109375,0 0.234375,0.03125 0.234375,0.359375 0,0.15625 -0.03125,0.296875 -0.0625,0.4375 z M 2.8125,-3.5 c 0.28125,-0.34375 0.75,-0.640625 1.234375,-0.640625 0.625,0 0.671875,0.53125 0.671875,0.75 0,0.515625 -0.34375,1.75 -0.5,2.140625 -0.3125,0.71875 -0.796875,0.96875 -1.203125,0.96875 C 2.421875,-0.28125 2.1875,-0.75 2.1875,-0.859375 L 2.203125,-1 Z m 0,0" id="g-path2277" stroke-width="1" stroke-linecap="butt" stroke-linejoin="miter" style="fill: rgb(108, 117, 125); fill-opacity: 1; fill-rule: nonzero; stroke: none; stroke-opacity: 1; stop-color: rgb(0, 0, 0); stop-opacity: 1; opacity: 1;"/> </g> </g> </g> </g></g></g></svg><polygon class="circular-node-port port-connected" points="12.485,37.700 24.170,50.000 12.485,62.300" stroke-width="1" stroke-linecap="butt" stroke-linejoin="miter" style="fill: rgb(108, 117, 125); fill-opacity: 1; fill-rule: nonzero; stroke: none; stroke-opacity: 1; stop-color: rgb(0, 0, 0); stop-opacity: 1; opacity: 1;"/><circle class="circular-node-ring" cx="50" cy="50" r="39.2575" stroke-width="3.4850000000000003" fill="none" stroke-linecap="butt" stroke-linejoin="miter" style="fill: none; fill-opacity: 1; fill-rule: nonzero; stroke: rgb(108, 117, 125); stroke-opacity: 1; stop-color: rgb(0, 0, 0); stop-opacity: 1; opacity: 1;"/></svg><text text-anchor="middle" font-family="Arial, sans-serif" font-size="10" font-weight="400" fill="rgb(108, 117, 125)"><tspan x="409.8672" y="62" dominant-baseline="central">PressureOutlet1</tspan></text><text text-anchor="middle" font-family="Arial, sans-serif" font-size="9" font-weight="400" fill="rgb(102, 102, 102)" x="410" y="15">3</text></g></g></g></svg>